<?xml version="1.0" encoding="iso-8859-1"?>
<!-- Uploaded to: SVG Repo, www.svgrepo.com, Generator: SVG Repo Mixer Tools -->
<svg height="800px" width="800px" version="1.1" id="Layer_1" xmlns="http://www.w3.org/2000/svg" xmlns:xlink="http://www.w3.org/1999/xlink" 
	 viewBox="0 0 512 512" xml:space="preserve">
<g transform="translate(1 1)">
	<g>
		<polygon style="fill:#E2E3E5;" points="371.364,478.418 483.073,478.418 483.073,385.327 371.364,385.327 		"/>
		<path style="fill:#E2E3E5;" d="M501.691,96.745H166.564c-5.585,0-9.309-3.724-9.309-9.309c0-5.585,3.724-9.309,9.309-9.309
			h335.127c5.585,0,9.309,3.724,9.309,9.309C511,93.022,507.276,96.745,501.691,96.745z"/>
		<path style="fill:#E2E3E5;" d="M54.855,96.745H17.618c-5.585,0-9.309-3.724-9.309-9.309c0-5.585,3.724-9.309,9.309-9.309h37.236
			c5.585,0,9.309,3.724,9.309,9.309C64.164,93.022,60.44,96.745,54.855,96.745z"/>
		<path style="fill:#E2E3E5;" d="M501.691,273.618H315.509c-5.585,0-9.309-3.724-9.309-9.309s3.724-9.309,9.309-9.309h186.182
			c5.585,0,9.309,3.724,9.309,9.309S507.276,273.618,501.691,273.618z"/>
		<path style="fill:#E2E3E5;" d="M203.8,273.618H17.618c-5.585,0-9.309-3.724-9.309-9.309S12.033,255,17.618,255H203.8
			c5.585,0,9.309,3.724,9.309,9.309S209.385,273.618,203.8,273.618z"/>
		<path style="fill:#E2E3E5;" d="M352.745,450.491H17.618c-5.585,0-9.309-3.724-9.309-9.309c0-5.585,3.724-9.309,9.309-9.309
			h335.127c5.585,0,9.309,3.724,9.309,9.309C362.055,446.767,358.331,450.491,352.745,450.491z"/>
		<path style="fill:#E2E3E5;" d="M501.691,450.491h-37.236c-5.585,0-9.309-3.724-9.309-9.309c0-5.585,3.724-9.309,9.309-9.309
			h37.236c5.585,0,9.309,3.724,9.309,9.309C511,446.767,507.276,450.491,501.691,450.491z"/>
	</g>
	<polygon style="fill:#CCCCCC;" points="343.436,478.418 455.145,478.418 455.145,385.327 343.436,385.327 	"/>
	<polygon style="fill:#E2E3E5;" points="343.436,478.418 427.218,478.418 427.218,385.327 343.436,385.327 	"/>
	<polygon style="fill:#CCCCCC;" points="194.491,301.545 306.2,301.545 306.2,208.455 194.491,208.455 	"/>
	<polygon style="fill:#E2E3E5;" points="194.491,301.545 278.273,301.545 278.273,208.455 194.491,208.455 	"/>
	<polygon style="fill:#CCCCCC;" points="82.782,124.673 157.255,124.673 157.255,31.582 82.782,31.582 	"/>
	<polygon style="fill:#FFFFFF;" points="45.545,124.673 120.018,124.673 120.018,31.582 45.545,31.582 	"/>
	<polygon style="fill:#E2E3E5;" points="73.473,124.673 129.327,124.673 129.327,31.582 73.473,31.582 	"/>
	<g>
		<path style="fill:#B6B6B6;" d="M492.382,87.436H157.255c-5.585,0-9.309-3.724-9.309-9.309c0-5.585,3.724-9.309,9.309-9.309
			h335.127c5.585,0,9.309,3.724,9.309,9.309C501.691,83.713,497.967,87.436,492.382,87.436z"/>
		<path style="fill:#B6B6B6;" d="M157.255,133.982H45.545c-5.585,0-9.309-3.724-9.309-9.309V31.582c0-5.585,3.724-9.309,9.309-9.309
			h111.709c5.585,0,9.309,3.724,9.309,9.309v93.091C166.564,130.258,162.84,133.982,157.255,133.982z M54.855,115.364h93.091V40.891
			H54.855V115.364z"/>
		<path style="fill:#B6B6B6;" d="M45.545,87.436H8.309C2.724,87.436-1,83.713-1,78.127c0-5.585,3.724-9.309,9.309-9.309h37.236
			c5.585,0,9.309,3.724,9.309,9.309C54.855,83.713,51.131,87.436,45.545,87.436z"/>
		<path style="fill:#B6B6B6;" d="M492.382,264.309H306.2c-5.585,0-9.309-3.724-9.309-9.309c0-5.585,3.724-9.309,9.309-9.309h186.182
			c5.585,0,9.309,3.724,9.309,9.309C501.691,260.585,497.967,264.309,492.382,264.309z"/>
		<path style="fill:#B6B6B6;" d="M306.2,310.855H194.491c-5.585,0-9.309-3.724-9.309-9.309v-93.091c0-5.585,3.724-9.309,9.309-9.309
			H306.2c5.585,0,9.309,3.724,9.309,9.309v93.091C315.509,307.131,311.785,310.855,306.2,310.855z M203.8,292.236h93.091v-74.473
			H203.8V292.236z"/>
		<path style="fill:#B6B6B6;" d="M194.491,264.309H8.309C2.724,264.309-1,260.585-1,255c0-5.585,3.724-9.309,9.309-9.309h186.182
			c5.585,0,9.309,3.724,9.309,9.309C203.8,260.585,200.076,264.309,194.491,264.309z"/>
		<path style="fill:#B6B6B6;" d="M343.436,441.182H8.309c-5.585,0-9.309-3.724-9.309-9.309s3.724-9.309,9.309-9.309h335.127
			c5.585,0,9.309,3.724,9.309,9.309S349.022,441.182,343.436,441.182z"/>
		<path style="fill:#B6B6B6;" d="M455.145,487.727H343.436c-5.585,0-9.309-3.724-9.309-9.309v-93.091
			c0-5.585,3.724-9.309,9.309-9.309h111.709c5.585,0,9.309,3.724,9.309,9.309v93.091
			C464.455,484.004,460.731,487.727,455.145,487.727z M352.745,469.109h93.091v-74.473h-93.091V469.109z"/>
		<path style="fill:#B6B6B6;" d="M492.382,441.182h-37.236c-5.585,0-9.309-3.724-9.309-9.309s3.724-9.309,9.309-9.309h37.236
			c5.585,0,9.309,3.724,9.309,9.309S497.967,441.182,492.382,441.182z"/>
	</g>
</g>
</svg>